<mxfile host="app.diagrams.net" modified="2021-10-13T23:50:31.265Z" agent="5.0 (Macintosh; Intel Mac OS X 10_15_7) AppleWebKit/537.36 (KHTML, like Gecko) Chrome/94.0.4606.81 Safari/537.36 Edg/94.0.992.47" etag="iCIsNsrPdZPMEgA-4FAM" version="15.5.2" type="github">
  <diagram id="Bm8dZN4ivnoAripCvTCq" name="Page-1">
    <mxGraphModel dx="1426" dy="1868" grid="1" gridSize="10" guides="1" tooltips="1" connect="1" arrows="1" fold="1" page="1" pageScale="1" pageWidth="827" pageHeight="1169" math="0" shadow="0">
      <root>
        <mxCell id="0" />
        <mxCell id="1" parent="0" />
        <mxCell id="Bmywiy6Kt7-xOILnYzD0-18" value="" style="rounded=1;whiteSpace=wrap;html=1;strokeWidth=1;fillColor=#f5f5f5;fontColor=#333333;strokeColor=#666666;" vertex="1" parent="1">
          <mxGeometry x="60" y="-50" width="730" height="360" as="geometry" />
        </mxCell>
        <mxCell id="Bmywiy6Kt7-xOILnYzD0-4" value="" style="edgeStyle=orthogonalEdgeStyle;rounded=0;orthogonalLoop=1;jettySize=auto;html=1;" edge="1" parent="1" source="Bmywiy6Kt7-xOILnYzD0-2" target="Bmywiy6Kt7-xOILnYzD0-3">
          <mxGeometry relative="1" as="geometry" />
        </mxCell>
        <mxCell id="Bmywiy6Kt7-xOILnYzD0-2" value="" style="ellipse;whiteSpace=wrap;html=1;aspect=fixed;" vertex="1" parent="1">
          <mxGeometry x="120" y="200" width="40" height="40" as="geometry" />
        </mxCell>
        <mxCell id="Bmywiy6Kt7-xOILnYzD0-8" value="" style="edgeStyle=orthogonalEdgeStyle;rounded=0;orthogonalLoop=1;jettySize=auto;html=1;" edge="1" parent="1" source="Bmywiy6Kt7-xOILnYzD0-3" target="Bmywiy6Kt7-xOILnYzD0-7">
          <mxGeometry relative="1" as="geometry" />
        </mxCell>
        <mxCell id="Bmywiy6Kt7-xOILnYzD0-3" value="POST /convert" style="whiteSpace=wrap;html=1;" vertex="1" parent="1">
          <mxGeometry x="200" y="190" width="120" height="60" as="geometry" />
        </mxCell>
        <mxCell id="Bmywiy6Kt7-xOILnYzD0-12" value="NO" style="edgeStyle=orthogonalEdgeStyle;rounded=0;orthogonalLoop=1;jettySize=auto;html=1;" edge="1" parent="1" source="Bmywiy6Kt7-xOILnYzD0-7">
          <mxGeometry relative="1" as="geometry">
            <mxPoint x="460" y="120" as="targetPoint" />
          </mxGeometry>
        </mxCell>
        <mxCell id="Bmywiy6Kt7-xOILnYzD0-17" value="Yes" style="edgeStyle=orthogonalEdgeStyle;rounded=0;orthogonalLoop=1;jettySize=auto;html=1;" edge="1" parent="1" source="Bmywiy6Kt7-xOILnYzD0-7" target="Bmywiy6Kt7-xOILnYzD0-16">
          <mxGeometry relative="1" as="geometry" />
        </mxCell>
        <mxCell id="Bmywiy6Kt7-xOILnYzD0-7" value="Is body correct?" style="rhombus;whiteSpace=wrap;html=1;" vertex="1" parent="1">
          <mxGeometry x="420" y="180" width="80" height="80" as="geometry" />
        </mxCell>
        <mxCell id="Bmywiy6Kt7-xOILnYzD0-15" style="edgeStyle=orthogonalEdgeStyle;rounded=0;orthogonalLoop=1;jettySize=auto;html=1;" edge="1" parent="1" source="Bmywiy6Kt7-xOILnYzD0-13">
          <mxGeometry relative="1" as="geometry">
            <mxPoint x="460" y="10" as="targetPoint" />
          </mxGeometry>
        </mxCell>
        <mxCell id="Bmywiy6Kt7-xOILnYzD0-13" value="Send error message" style="whiteSpace=wrap;html=1;" vertex="1" parent="1">
          <mxGeometry x="400" y="60" width="120" height="60" as="geometry" />
        </mxCell>
        <mxCell id="Bmywiy6Kt7-xOILnYzD0-14" value="" style="ellipse;whiteSpace=wrap;html=1;aspect=fixed;fillColor=#000000;" vertex="1" parent="1">
          <mxGeometry x="440" y="-30" width="40" height="40" as="geometry" />
        </mxCell>
        <mxCell id="Bmywiy6Kt7-xOILnYzD0-16" value="ConvertCurrency" style="whiteSpace=wrap;html=1;rounded=1;glass=0;sketch=0;fillColor=#fff2cc;strokeColor=#d6b656;" vertex="1" parent="1">
          <mxGeometry x="600" y="190" width="120" height="60" as="geometry" />
        </mxCell>
        <mxCell id="Bmywiy6Kt7-xOILnYzD0-19" value="" style="rounded=1;whiteSpace=wrap;html=1;strokeWidth=1;fillColor=#fff2cc;strokeColor=#d6b656;" vertex="1" parent="1">
          <mxGeometry x="60" y="360" width="730" height="360" as="geometry" />
        </mxCell>
        <mxCell id="Bmywiy6Kt7-xOILnYzD0-21" value="&lt;b&gt;Client controllers&lt;/b&gt;" style="text;html=1;strokeColor=none;fillColor=none;align=center;verticalAlign=middle;whiteSpace=wrap;rounded=0;glass=0;sketch=0;" vertex="1" parent="1">
          <mxGeometry x="100" y="-30" width="120" height="30" as="geometry" />
        </mxCell>
        <mxCell id="Bmywiy6Kt7-xOILnYzD0-22" value="&lt;b&gt;ConvertCurrency&lt;/b&gt;" style="text;html=1;strokeColor=none;fillColor=none;align=center;verticalAlign=middle;whiteSpace=wrap;rounded=0;glass=0;sketch=0;" vertex="1" parent="1">
          <mxGeometry x="105" y="390" width="110" height="30" as="geometry" />
        </mxCell>
      </root>
    </mxGraphModel>
  </diagram>
</mxfile>
